Coordinates
version=1
nRows=12
nColumns=34
inDegrees=yes

Units are S.I. units (second, meters, Newtons, ...)
If the header above contains a line with 'inDegrees', this indicates whether rotational values are in degrees (yes) or radians (no).

endheader
time	pelvis_tilt	pelvis_list	pelvis_rotation	pelvis_tx	pelvis_ty	pelvis_tz	hip_flexion_r	hip_adduction_r	hip_rotation_r	knee_angle_r	ankle_angle_r	subtalar_angle_r	mtp_angle_r	hip_flexion_l	hip_adduction_l	hip_rotation_l	knee_angle_l	ankle_angle_l	subtalar_angle_l	mtp_angle_l	lumbar_extension	lumbar_bending	lumbar_rotation	arm_flex_r	arm_add_r	arm_rot_r	elbow_flex_r	pro_sup_r	arm_flex_l	arm_add_l	arm_rot_l	elbow_flex_l	pro_sup_l
     15.00000000	      1.90743092	     -1.01719988	    157.16987989	      0.44388964	      0.87861431	     -0.07863829	     21.93643325	     -1.14906658	     -9.34066565	     91.60753517	    -24.20222044	    -27.85263236	      0.00000000	     23.07050514	     -8.51458644	      0.65790059	     95.52221961	    -15.18751890	    -32.62187169	      0.00000000	     -2.17817307	      1.71312854	     -1.20388174	   -177.54783062	   -148.06567441	    138.74703822	    146.28862599	     95.98773142	    195.78402315	    216.08085266	    148.17864859	    138.60860144	     93.83388307
     15.01666670	      2.00251273	     -1.12423414	    157.20013215	      0.44461613	      0.87790407	     -0.07891150	     22.17077435	     -1.14395777	     -9.32580195	     91.67434873	    -23.74528527	    -27.94107105	      0.00000000	     23.22564611	     -8.48755648	      0.72843823	     95.67386438	    -13.90441944	    -31.90888876	      0.00000000	     -2.19871949	      1.55457527	     -1.33802623	   -177.80668312	   -147.98866070	    138.10251599	    146.81623833	     95.96910056	    195.97211193	    216.59169374	    147.60030073	    139.02172346	     93.78987806
     15.03333330	      2.01562430	     -1.13169312	    157.12384016	      0.44510738	      0.87759866	     -0.07905311	     22.17543592	     -1.16263373	     -9.32866772	     91.54146740	    -23.75022591	    -27.92731251	      0.00000000	     23.19511097	     -8.48035646	      0.74417877	     95.73819532	    -13.86899736	    -31.91648755	      0.00000000	     -2.16403331	      1.52680829	     -1.36456025	   -177.80819021	   -147.98248654	    138.08628385	    146.83280900	     95.96814105	    195.98279516	    216.59758554	    147.58969388	    139.02764435	     93.78870937
     15.05000000	      2.22761186	     -1.15504074	    157.21613376	      0.44505955	      0.87702502	     -0.07938312	     22.32988269	     -1.09532121	     -9.43803317	     91.43637382	    -23.69441119	    -27.67445042	      0.00000000	     23.43935123	     -8.58747280	      0.89083734	     95.89550852	    -12.57661414	    -30.93983833	      0.00000000	     -1.92284753	      1.55403159	     -1.50011658	   -178.08344950	   -147.92044323	    137.35635753	    147.22944631	     95.91557101	    196.04842587	    216.81984022	    147.09039418	    139.34081887	     93.72927774
     15.06666670	      2.23842033	     -1.13872994	    157.15833696	      0.44521347	      0.87692834	     -0.07957459	     22.34267522	     -1.09233631	     -9.44393357	     91.44648188	    -23.69564814	    -27.67276633	      0.00000000	     23.39824564	     -8.58585582	      0.93737356	     95.88239972	    -12.54794811	    -30.94266270	      0.00000000	     -1.88652975	      1.53833035	     -1.52668008	   -178.08779591	   -147.91216929	    137.34400714	    147.24124398	     95.91432490	    196.05752641	    216.82450985	    147.08380142	    139.34423788	     93.72827209
     15.08333330	      2.46902077	     -1.16474363	    157.19760573	      0.44491621	      0.87646925	     -0.07997762	     22.53934977	     -0.98668212	     -9.49740363	     91.43530805	    -23.64766743	    -27.62323837	      0.00000000	     23.61600766	     -8.68230227	      1.04016030	     95.88884094	    -11.53824110	    -30.01251492	      0.00000000	     -1.53153128	      1.58445678	     -1.59525440	   -178.37193210	   -147.74858126	    136.91513133	    147.39661777	     95.84583825	    196.09677459	    216.95607068	    146.83694447	    139.40652505	     93.68026079
     15.10000000	      2.47185406	     -1.16274593	    157.17019806	      0.44503136	      0.87638201	     -0.08002040	     22.52636830	     -0.98287321	     -9.49863523	     91.44106222	    -23.64983176	    -27.62112486	      0.00000000	     23.62600802	     -8.68085754	      1.05589328	     95.84460134	    -11.52934971	    -30.01028958	      0.00000000	     -1.51954053	      1.58613177	     -1.60683630	   -178.37359122	   -147.74570194	    136.91149873	    147.39917166	     95.84524541	    196.10089889	    216.95768744	    146.83609197	    139.40709301	     93.67999607
     15.11666670	      2.53892232	     -1.17477120	    157.14791172	      0.44445903	      0.87686019	     -0.08051666	     22.49570170	     -0.90762867	     -9.45115604	     91.32061056	    -23.62686274	    -27.62061599	      0.00000000	     23.53147443	     -8.64666348	      1.08610713	     95.58270974	    -11.41662898	    -29.86975031	      0.00000000	     -1.26969736	      1.58550835	     -1.71343312	   -178.41871141	   -147.68783245	    136.85939344	    147.41921112	     95.83504721	    196.13807852	    216.99222424	    146.80585240	    139.40579780	     93.67506618
     15.13333330	      2.53592159	     -1.17250263	    157.12987214	      0.44448718	      0.87703560	     -0.08062751	     22.48158393	     -0.90023612	     -9.45270869	     91.33253306	    -23.62608102	    -27.62022725	      0.00000000	     23.55397389	     -8.64339328	      1.08874530	     95.55396739	    -11.41021979	    -29.86146567	      0.00000000	     -1.26435678	      1.58621012	     -1.72177440	   -178.42300212	   -147.68563473	    136.85750177	    147.41841077	     95.83458171	    196.13824052	    216.99257865	    146.80555763	    139.40356885	     93.67492412
     15.15000000	      2.89311354	     -1.32428410	    157.07572930	      0.44400812	      0.87663288	     -0.08129817	     22.90113500	     -0.77880314	     -9.33231168	     91.36681670	    -23.45065735	    -27.54096082	      0.00000000	     23.89934254	     -8.73475264	      1.04801776	     95.46263490	    -10.26627260	    -28.45337022	      0.00000000	     -0.59894345	      1.53610789	     -1.74460261	   -179.00075297	   -147.56355610	    136.73951338	    147.15505169	     95.73570196	    195.90937748	    217.04431557	    146.75287000	    139.01352048	     93.64765515
     15.16666670	      2.89433797	     -1.33064528	    157.05358359	      0.44394680	      0.87662499	     -0.08146442	     22.88616382	     -0.77814977	     -9.32561033	     91.37511720	    -23.45281200	    -27.53935508	      0.00000000	     23.91560887	     -8.73583428	      1.05472120	     95.44160306	    -10.26589676	    -28.45018291	      0.00000000	     -0.59547156	      1.54240212	     -1.75980814	   -179.00275691	   -147.56218279	    136.73756783	    147.15589882	     95.73509051	    195.91277559	    217.04434644	    146.75451347	    139.01217160	     93.64765616
     15.18333330	      2.92866767	     -1.36903471	    157.01533138	      0.44350735	      0.87666262	     -0.08173496	     22.90741549	     -0.73376728	     -9.19447248	     91.37493840	    -23.51712071	    -27.48892625	      0.00000000	     23.90655871	     -8.71333463	      1.03788866	     95.37010597	    -10.29404129	    -28.36360607	      0.00000000	     -0.48984688	      1.53754759	     -1.92084571	   -179.03465029	   -147.51997365	    136.71073981	    147.15596855	     95.72484169	    195.95019918	    217.07116945	    146.75686285	    138.96162640	     93.64642005
